<?xml version="1.0" encoding="UTF-8" standalone="no"?>
<svg width="122px" height="169px" viewBox="0 0 122 169" version="1.1" xmlns="http://www.w3.org/2000/svg" xmlns:xlink="http://www.w3.org/1999/xlink" xmlns:sketch="http://www.bohemiancoding.com/sketch/ns">
    <!-- Generator: Sketch 3.1.1 (8761) - http://www.bohemiancoding.com/sketch -->
    <title>LIDAR-Lite Image 2</title>
    <desc>Created with Sketch.</desc>
    <defs>
        <linearGradient x1="1.90389605%" y1="0%" x2="100%" y2="100%" id="linearGradient-1">
            <stop stop-color="#363636" offset="0%"></stop>
            <stop stop-color="#262626" offset="100%"></stop>
        </linearGradient>
        <radialGradient cx="50%" cy="50%" fx="50%" fy="50%" r="89.1459487%" id="radialGradient-2">
            <stop stop-color="#000000" stop-opacity="0" offset="0%"></stop>
            <stop stop-color="#000000" offset="100%"></stop>
        </radialGradient>
        <linearGradient x1="50%" y1="35.2311198%" x2="50%" y2="100%" id="linearGradient-3">
            <stop stop-color="#434343" offset="0%"></stop>
            <stop stop-color="#000000" stop-opacity="0" offset="100%"></stop>
        </linearGradient>
        <radialGradient cx="50%" cy="50%" fx="50%" fy="50%" r="52.8755792%" id="radialGradient-4">
            <stop stop-color="#000000" stop-opacity="0" offset="0%"></stop>
            <stop stop-color="#000000" offset="100%"></stop>
        </radialGradient>
        <ellipse id="path-5" cx="33.5319149" cy="33.4858934" rx="33.5319149" ry="33.4858934"></ellipse>
    </defs>
    <g id="Page-2" stroke="none" stroke-width="1" fill="none" fill-rule="evenodd" sketch:type="MSPage">
        <g id="LIDAR-Lite-Image-2" sketch:type="MSArtboardGroup">
            <g id="LIDAR" sketch:type="MSLayerGroup" transform="translate(0.000000, -49.000000)">
                <g id="Lidar-Lite-Illustration-for-Fritzing" transform="translate(0.000000, 49.203762)">
                    <g id="Page-1">
                        <g id="Group">
                            <g id="Rectangle-2-+-Rectangle-3" transform="translate(8.196068, 9.782474)" fill="#1A1A1A" sketch:type="MSShapeGroup">
                                <path d="M85.4669863,5.37164339 C58.406655,5.37164339 65.4698224,37.4907656 85.1679976,37.4907656 C88.5844851,37.4907656 88.9364125,45.8714227 88.681719,40.2067853 C88.4270255,34.5421478 101.57872,32.9231139 101.57872,32.9231139 C108.057356,33.1715402 113.309329,28.0278872 113.309329,21.4312045 C113.309329,14.835972 108.059925,9.8082729 101.580368,9.93565586 C101.580368,9.93565586 88.4270242,9.93565566 88.4270249,2.65562378 C88.4270256,-4.6244081 88.7231695,5.37164339 85.4669863,5.37164339 Z M102.798785,28.3563985 C106.54022,28.3563985 109.573253,25.2724077 109.573253,21.4681123 C109.573253,17.6638168 106.54022,14.579826 102.798785,14.579826 C99.0573501,14.579826 96.0243172,17.6638168 96.0243172,21.4681123 C96.0243172,25.2724077 99.0573501,28.3563985 102.798785,28.3563985 L102.798785,28.3563985 Z" id="Rectangle-2"></path>
                                <path d="M17.7746786,5.37164353 C-9.28565278,5.37164353 -2.2224853,37.4907658 17.4756898,37.4907658 C20.8921773,37.4907658 21.2441048,47.4904569 20.9894113,40.2067854 C20.7347178,32.9231139 33.8864125,32.9231141 33.8864125,32.9231141 C40.3650487,33.1715403 45.6170213,28.0278874 45.6170213,21.4312047 C45.6170213,14.8359721 40.3676175,9.80827304 33.8880601,9.935656 C33.8880601,9.935656 20.7347178,9.93565612 20.7347172,2.65562392 C20.7347166,-4.62440828 21.0308617,5.37164353 17.7746786,5.37164353 Z M35.1064775,28.3563987 C38.8479128,28.3563987 41.8809454,25.2724079 41.8809454,21.4681124 C41.8809454,17.663817 38.8479128,14.5798262 35.1064775,14.5798262 C31.3650421,14.5798262 28.3320095,17.663817 28.3320095,21.4681124 C28.3320095,25.2724079 31.3650421,28.3563987 35.1064775,28.3563987 L35.1064775,28.3563987 Z" id="Rectangle-3" transform="translate(22.808511, 21.431988) scale(-1, 1) translate(-22.808511, -21.431988) "></path>
                            </g>
                            <g id="Rectangle-2-+-Rectangle-4" transform="translate(8.196068, 116.732317)" fill="#1A1A1A" sketch:type="MSShapeGroup">
                                <path d="M17.7746786,5.37164353 C-9.28565278,5.37164353 -2.2224853,37.4907658 17.4756898,37.4907658 C20.8921773,37.4907658 20.9894116,46.2131153 20.9894113,40.2067854 C20.989411,34.2004555 33.8864125,32.9231141 33.8864125,32.9231141 C40.3650487,33.1715403 45.6170213,28.0278874 45.6170213,21.4312047 C45.6170213,14.8359721 40.3676175,9.80827304 33.8880601,9.935656 C33.8880601,9.935656 20.7347178,9.93565612 20.7347172,2.65562392 C20.7347166,-4.62440828 21.0308617,5.37164353 17.7746786,5.37164353 Z M34.4256264,28.3563987 C38.1670617,28.3563987 41.2000943,25.2724079 41.2000943,21.4681124 C41.2000943,17.663817 38.1670617,14.5798262 34.4256264,14.5798262 C30.6841911,14.5798262 27.6511584,17.663817 27.6511584,21.4681124 C27.6511584,25.2724079 30.6841911,28.3563987 34.4256264,28.3563987 L34.4256264,28.3563987 Z" id="Rectangle-3" transform="translate(22.808511, 21.158657) scale(-1, 1) translate(-22.808511, -21.158657) "></path>
                                <path d="M85.4669863,5.37164353 C58.4066549,5.37164353 65.4698224,37.4907658 85.1679975,37.4907658 C88.584485,37.4907658 88.6817193,46.2131153 88.681719,40.2067854 C88.6817187,34.2004555 101.57872,32.9231141 101.57872,32.9231141 C108.057356,33.1715403 113.309329,28.0278874 113.309329,21.4312047 C113.309329,14.8359721 108.059925,9.80827304 101.580368,9.935656 C101.580368,9.935656 88.4270255,9.93565612 88.4270249,2.65562392 C88.4270243,-4.62440828 88.7231694,5.37164353 85.4669863,5.37164353 Z M102.117934,28.3563987 C105.859369,28.3563987 108.892402,25.2724079 108.892402,21.4681124 C108.892402,17.663817 105.859369,14.5798262 102.117934,14.5798262 C98.3764987,14.5798262 95.3434661,17.663817 95.3434661,21.4681124 C95.3434661,25.2724079 98.3764987,28.3563987 102.117934,28.3563987 L102.117934,28.3563987 Z" id="Rectangle-3-2"></path>
                            </g>
                            <g id="Rectangle-6-+-Rectangle-7-+-Rectangle-8" transform="translate(0.000000, 58.883901)">
                                <g id="Group" transform="translate(0.017237, 0.013876)">
                                    <g id="Line-6-+-Oval-11-+-5V" transform="translate(0.000000, 44.420063)">
                                        <g id="Line-6-+-Oval-11" transform="translate(0.000000, 4.100313)" sketch:type="MSShapeGroup">
                                            <path d="M42.9561653,1.23163842 L1.49220503,1.23163842" id="Line-6" stroke="#D0011B"></path>
                                            <ellipse id="Oval-11" fill="#D0011B" cx="1.53406949" cy="1.34939205" rx="1.55130622" ry="1.55322789"></ellipse>
                                        </g>
                                        <text id="5V" sketch:type="MSTextLayer" font-family="Helvetica" font-size="3" font-weight="normal" fill="#000000">
                                            <tspan x="3.38701858" y="2.87338287">5V</tspan>
                                        </text>
                                    </g>
                                    <g id="Line-6-+-Oval-11-4-+-PWR-EN" transform="translate(0.000000, 35.536050)">
                                        <g id="Line-6-+-Oval-11-4" transform="translate(0.000000, 3.973696)" sketch:type="MSShapeGroup">
                                            <path d="M42.9561653,1.23163842 L1.49220503,1.23163842" id="Line-6" stroke="#000000"></path>
                                            <ellipse id="Oval-11" fill="#000000" cx="1.53406949" cy="1.12273358" rx="1.55130622" ry="1.55322789"></ellipse>
                                        </g>
                                        <text id="PWR-EN" sketch:type="MSTextLayer" font-family="Helvetica" font-size="3" font-weight="normal" fill="#000000">
                                            <tspan x="3.38701858" y="2.87338287">PWR EN</tspan>
                                        </text>
                                    </g>
                                    <g id="Line-6-+-Oval-11-3-+-MODE" transform="translate(0.000000, 26.652038)">
                                        <g id="Line-6-+-Oval-11-3" transform="translate(0.000000, 3.973696)" sketch:type="MSShapeGroup">
                                            <path d="M42.9561653,1.23163842 L1.49220503,1.23163842" id="Line-6" stroke="#000000"></path>
                                            <ellipse id="Oval-11" fill="#000000" cx="1.53406949" cy="1.13895327" rx="1.55130622" ry="1.55322789"></ellipse>
                                        </g>
                                        <text id="MODE" sketch:type="MSTextLayer" font-family="Helvetica" font-size="3" font-weight="normal" fill="#000000">
                                            <tspan x="3.38701858" y="2.87338287">MODE</tspan>
                                        </text>
                                    </g>
                                    <g id="Line-6-+-Oval-11-2-+-SCL" transform="translate(0.000000, 17.768025)">
                                        <g id="Line-6-+-Oval-11-2" transform="translate(0.000000, 3.973696)" sketch:type="MSShapeGroup">
                                            <path d="M42.9561653,1.23163842 L1.49220503,1.23163842" id="Line-6" stroke="#000000"></path>
                                            <ellipse id="Oval-11" fill="#000000" cx="1.53406949" cy="1.27832552" rx="1.55130622" ry="1.55322789"></ellipse>
                                        </g>
                                        <text id="SCL" sketch:type="MSTextLayer" font-family="Helvetica" font-size="3" font-weight="normal" fill="#000000">
                                            <tspan x="3.38701858" y="2.87338287">SCL</tspan>
                                        </text>
                                    </g>
                                    <g id="Line-6-+-Oval-11-2-+-SDA" transform="translate(0.000000, 8.884013)">
                                        <g id="Line-6-+-Oval-11-2" transform="translate(0.000000, 3.973696)" sketch:type="MSShapeGroup">
                                            <path d="M42.9561653,1.23163842 L1.49220503,1.23163842" id="Line-6" stroke="#000000"></path>
                                            <ellipse id="Oval-11" fill="#000000" cx="1.53406949" cy="1.17138325" rx="1.55130622" ry="1.55322789"></ellipse>
                                        </g>
                                        <text id="SDA" sketch:type="MSTextLayer" font-family="Helvetica" font-size="3" font-weight="normal" fill="#000000">
                                            <tspan x="3.38701858" y="2.87338287">SDA</tspan>
                                        </text>
                                    </g>
                                    <g id="Line-6-+-Oval-11-2-+-GND">
                                        <g id="Line-6-+-Oval-11-2" transform="translate(0.000000, 4.100313)" sketch:type="MSShapeGroup">
                                            <g>
                                                <path d="M42.9561653,1.23163842 L1.49220503,1.23163842" id="Line-6" stroke="#000000"></path>
                                                <ellipse id="Oval-11" fill="#000000" cx="1.53406949" cy="1.18414307" rx="1.55130622" ry="1.55322789"></ellipse>
                                            </g>
                                        </g>
                                        <text id="GND" sketch:type="MSTextLayer" font-family="Helvetica" font-size="3" font-weight="normal" fill="#000000">
                                            <tspan x="3.38701858" y="2.87338287">GND</tspan>
                                        </text>
                                    </g>
                                </g>
                                <g id="Rectangle-6-+-Rectangle-8" transform="translate(25.191489, 2.733542)" stroke="#C2C2C2" stroke-width="0.3" sketch:type="MSShapeGroup">
                                    <rect id="Rectangle-6" fill="#EEEEEE" x="0" y="0" width="8.6183679" height="50.1447076"></rect>
                                    <path d="M4.08510638,17.9047027 L0,17.9047027 L0,0 L8.24777808,0 L12.7034743,0 L12.7034743,50.1447076 L4.08510638,50.1447076 L4.08510638,50.023825 L0,50.023825 L0,32.1191223 L4.08510638,32.1191223 L4.08510638,17.9047027 Z" id="Rectangle-8-2" fill="#FFFFFF"></path>
                                    <rect id="Rectangle-8" fill="#FFFFFF" x="0" y="21.184953" width="12.4104498" height="6.97053279"></rect>
                                </g>
                            </g>
                            <g transform="translate(30.215998, 0.000000)" id="Rectangle-1" fill="url(#linearGradient-1)" sketch:type="MSShapeGroup">
                                <rect x="0" y="0" width="69.2916779" height="168.796238"></rect>
                            </g>
                        </g>
                    </g>
                </g>
                <path d="M64.9658585,115.690565 C59.5802202,115.690565 48.3404255,111.39185 48.3404255,111.39185 C48.3404255,111.39185 52.8688768,112.108302 52.8688768,133.601881 C52.8688768,155.09546 48.3404255,155.811912 48.3404255,155.811912 C48.3404255,155.811912 59.2230332,152.229649 64.9658585,152.229649 C70.5705509,152.229649 82.3829787,155.811912 82.3829787,155.811912 C82.3829787,155.811912 77.8545275,153.662554 77.8545275,132.885428 C77.8545275,112.108302 82.3829787,111.39185 82.3829787,111.39185 C82.3829787,111.39185 70.9277379,115.690565 64.9658585,115.690565 Z" id="Rectangle-5" fill="#454545" sketch:type="MSShapeGroup"></path>
                <ellipse id="Oval-17" fill="#1A1A1A" sketch:type="MSShapeGroup" cx="65.0212766" cy="133.601881" rx="2.38297872" ry="2.39184953"></ellipse>
                <ellipse id="Oval-14" fill="url(#radialGradient-2)" sketch:type="MSShapeGroup" cx="64.7489351" cy="84.1247638" rx="32.7489351" ry="32.8708454"></ellipse>
                <path d="M64.7568524,117.694888 C83.2239861,117.694888 98.1945558,102.668589 98.1945558,84.1327106 C98.1945558,65.5968317 83.2239861,50.5705329 64.7568524,50.5705329 C46.2897187,50.5705329 31.3191489,65.5968317 31.3191489,84.1327106 C31.3191489,102.668589 46.2897187,117.694888 64.7568524,117.694888 Z M65.0893607,113.578681 C81.107968,113.578681 94.0936149,100.544694 94.0936149,84.4664566 C94.0936149,68.3882189 81.107968,55.354232 65.0893607,55.354232 C49.0707533,55.354232 36.0851064,68.3882189 36.0851064,84.4664566 C36.0851064,100.544694 49.0707533,113.578681 65.0893607,113.578681 Z" id="Oval-11" fill="#595959" sketch:type="MSShapeGroup"></path>
                <g id="Group" transform="translate(20.896890, 12.517153)" sketch:type="MSShapeGroup">
                    <ellipse id="Oval-14" opacity="0.540694963" fill="url(#linearGradient-3)" cx="43.7839607" cy="72.2226591" rx="26.3117979" ry="26.4097454"></ellipse>
                    <path d="M63.6102517,89.8537647 C58.7841891,95.0206632 51.9223882,98.2487864 44.309415,98.2487864 C29.7007333,98.2487864 17.8580568,86.3620248 17.8580568,71.6989612 C17.8580568,64.0576482 21.0742077,57.1703037 26.2219434,52.3262757 C21.7871809,57.0742389 19.0714219,63.4593287 19.0714219,70.4810793 C19.0714219,85.1441428 30.9140984,97.0309045 45.5227801,97.0309045 C52.5184886,97.0309045 58.8798977,94.3050359 63.6102517,89.8537647 Z" id="Oval-18" fill-opacity="0.0700000077" fill="#B0B0B0"></path>
                </g>
                <g id="Oval-12-+-Oval-15-+-Group-2-+-Oval-13" transform="translate(31.319149, 149.661442)">
                    <g id="Oval-12">
                        <use fill="none" sketch:type="MSShapeGroup" xlink:href="#path-5"></use>
                        <use fill="url(#radialGradient-4)" fill-rule="evenodd" xlink:href="#path-5"></use>
                    </g>
                    <g id="Oval-15-+-Group-2-+-Oval-13" sketch:type="MSShapeGroup">
                        <path d="M33.608304,67.4668265 C52.1696577,67.4668265 67.2166079,52.363863 67.2166079,33.7334133 C67.2166079,15.1029636 52.1696577,0 33.608304,0 C15.0469502,0 0,15.1029636 0,33.7334133 C0,52.363863 15.0469502,67.4668265 33.608304,67.4668265 Z M33.9425098,63.3296206 C50.0428453,63.3296206 63.094746,50.2291333 63.094746,34.0688632 C63.094746,17.908593 50.0428453,4.80810569 33.9425098,4.80810569 C17.8421743,4.80810569 4.79027356,17.908593 4.79027356,34.0688632 C4.79027356,50.2291333 17.8421743,63.3296206 33.9425098,63.3296206 Z" id="Oval-15" fill="#5A5A5A"></path>
                        <g id="Group-2" transform="translate(7.527573, 7.555595)">
                            <ellipse id="Oval-14" opacity="0.540694963" fill="url(#linearGradient-3)" cx="26.688667" cy="26.7880174" rx="26.4460418" ry="26.544489"></ellipse>
                            <path d="M46.6098331,44.5153615 C41.7591477,49.7086217 34.8623376,52.9532149 27.2105227,52.9532149 C12.5273069,52.9532149 0.624208618,41.0058066 0.624208618,26.2679314 C0.624208618,18.5876321 3.85676839,11.6651482 9.03076803,6.79640576 C4.57337924,11.5685932 1.84376435,17.98626 1.84376435,25.0438358 C1.84376435,39.7817109 13.7468626,51.7291193 28.4300784,51.7291193 C35.4614793,51.7291193 41.8553446,48.9893432 46.6098331,44.5153615 Z" id="Oval-18" fill-opacity="0.120000005" fill="#B0B0B0"></path>
                        </g>
                        <path d="M33.8056459,62.3680016 C49.4524513,62.3680016 62.1366934,49.6365416 62.1366934,33.9314898 C62.1366934,18.2264379 49.4524513,5.49497793 33.8056459,5.49497793 C18.1588404,5.49497793 5.47459835,18.2264379 5.47459835,33.9314898 C5.47459835,49.6365416 18.1588404,62.3680016 33.8056459,62.3680016 Z M33.8766499,61.0851493 C48.7783688,61.0851493 60.8585989,48.9599498 60.8585989,34.0027581 C60.8585989,19.0455665 48.7783688,6.92036694 33.8766499,6.92036694 C18.974931,6.92036694 6.89470093,19.0455665 6.89470093,34.0027581 C6.89470093,48.9599498 18.974931,61.0851493 33.8766499,61.0851493 Z" id="Oval-13" fill="#5A5A5A"></path>
                    </g>
                </g>
            </g>
        </g>
    </g>
</svg>